<mxfile host="Electron" agent="Mozilla/5.0 (Macintosh; Intel Mac OS X 10_15_7) AppleWebKit/537.36 (KHTML, like Gecko) draw.io/28.1.2 Chrome/138.0.7204.243 Electron/37.4.0 Safari/537.36" version="28.1.2">
  <diagram name="Page-1" id="hhwkbDNAwi9knJP14_bt">
    <mxGraphModel dx="1059" dy="604" grid="1" gridSize="10" guides="1" tooltips="1" connect="1" arrows="1" fold="1" page="1" pageScale="1" pageWidth="1169" pageHeight="827" math="0" shadow="0">
      <root>
        <mxCell id="0" />
        <mxCell id="1" parent="0" />
        <mxCell id="ZW_wzAKL9dOvXyNLxoYu-18" value="«Controller»&lt;br&gt;&lt;b&gt;:myController&lt;/b&gt;" style="html=1;dropTarget=0;whiteSpace=wrap;" parent="1" vertex="1">
          <mxGeometry x="320" y="270" width="180" height="90" as="geometry" />
        </mxCell>
        <mxCell id="ZW_wzAKL9dOvXyNLxoYu-19" value="" style="shape=module;jettyWidth=8;jettyHeight=4;" parent="ZW_wzAKL9dOvXyNLxoYu-18" vertex="1">
          <mxGeometry x="1" width="20" height="20" relative="1" as="geometry">
            <mxPoint x="-27" y="7" as="offset" />
          </mxGeometry>
        </mxCell>
        <mxCell id="ZW_wzAKL9dOvXyNLxoYu-20" value="«Model»&lt;br&gt;&lt;b&gt;:myModel&lt;/b&gt;" style="html=1;dropTarget=0;whiteSpace=wrap;" parent="1" vertex="1">
          <mxGeometry x="570" y="270" width="180" height="90" as="geometry" />
        </mxCell>
        <mxCell id="ZW_wzAKL9dOvXyNLxoYu-21" value="" style="shape=module;jettyWidth=8;jettyHeight=4;" parent="ZW_wzAKL9dOvXyNLxoYu-20" vertex="1">
          <mxGeometry x="1" width="20" height="20" relative="1" as="geometry">
            <mxPoint x="-27" y="7" as="offset" />
          </mxGeometry>
        </mxCell>
        <mxCell id="ZW_wzAKL9dOvXyNLxoYu-25" value="«View»&lt;br&gt;&lt;b&gt;:myConsoleView&lt;/b&gt;" style="html=1;dropTarget=0;whiteSpace=wrap;" parent="1" vertex="1">
          <mxGeometry x="860" y="300" width="180" height="90" as="geometry" />
        </mxCell>
        <mxCell id="ZW_wzAKL9dOvXyNLxoYu-26" value="" style="shape=module;jettyWidth=8;jettyHeight=4;" parent="ZW_wzAKL9dOvXyNLxoYu-25" vertex="1">
          <mxGeometry x="1" width="20" height="20" relative="1" as="geometry">
            <mxPoint x="-27" y="7" as="offset" />
          </mxGeometry>
        </mxCell>
        <mxCell id="ZW_wzAKL9dOvXyNLxoYu-27" value="«UserInputSource»&lt;br&gt;&lt;b&gt;:myGUIInput&lt;/b&gt;" style="html=1;dropTarget=0;whiteSpace=wrap;" parent="1" vertex="1">
          <mxGeometry x="60" y="200" width="180" height="90" as="geometry" />
        </mxCell>
        <mxCell id="ZW_wzAKL9dOvXyNLxoYu-28" value="" style="shape=module;jettyWidth=8;jettyHeight=4;" parent="ZW_wzAKL9dOvXyNLxoYu-27" vertex="1">
          <mxGeometry x="1" width="20" height="20" relative="1" as="geometry">
            <mxPoint x="-27" y="7" as="offset" />
          </mxGeometry>
        </mxCell>
        <mxCell id="ZW_wzAKL9dOvXyNLxoYu-29" value="" style="rounded=0;orthogonalLoop=1;jettySize=auto;html=1;endArrow=halfCircle;endFill=0;endSize=6;strokeWidth=1;sketch=0;exitX=1;exitY=0.5;exitDx=0;exitDy=0;" parent="1" source="ZW_wzAKL9dOvXyNLxoYu-27" target="ZW_wzAKL9dOvXyNLxoYu-31" edge="1">
          <mxGeometry relative="1" as="geometry">
            <mxPoint x="528" y="296" as="sourcePoint" />
          </mxGeometry>
        </mxCell>
        <mxCell id="ZW_wzAKL9dOvXyNLxoYu-42" style="edgeStyle=orthogonalEdgeStyle;rounded=0;orthogonalLoop=1;jettySize=auto;html=1;exitX=0;exitY=0.5;exitDx=0;exitDy=0;" parent="1" source="ZW_wzAKL9dOvXyNLxoYu-33" edge="1">
          <mxGeometry relative="1" as="geometry">
            <mxPoint x="70" y="384" as="targetPoint" />
          </mxGeometry>
        </mxCell>
        <mxCell id="ZW_wzAKL9dOvXyNLxoYu-33" value="«UserInputSource»&lt;br&gt;&lt;b&gt;:myConsoleIInput&lt;/b&gt;" style="html=1;dropTarget=0;whiteSpace=wrap;" parent="1" vertex="1">
          <mxGeometry x="60" y="339" width="180" height="90" as="geometry" />
        </mxCell>
        <mxCell id="ZW_wzAKL9dOvXyNLxoYu-34" value="" style="shape=module;jettyWidth=8;jettyHeight=4;" parent="ZW_wzAKL9dOvXyNLxoYu-33" vertex="1">
          <mxGeometry x="1" width="20" height="20" relative="1" as="geometry">
            <mxPoint x="-27" y="7" as="offset" />
          </mxGeometry>
        </mxCell>
        <mxCell id="ZW_wzAKL9dOvXyNLxoYu-35" value="" style="rounded=0;orthogonalLoop=1;jettySize=auto;html=1;endArrow=halfCircle;endFill=0;endSize=6;strokeWidth=1;sketch=0;exitX=1;exitY=0.5;exitDx=0;exitDy=0;" parent="1" source="ZW_wzAKL9dOvXyNLxoYu-33" edge="1">
          <mxGeometry relative="1" as="geometry">
            <mxPoint x="528" y="426" as="sourcePoint" />
            <mxPoint x="280" y="360" as="targetPoint" />
          </mxGeometry>
        </mxCell>
        <mxCell id="ZW_wzAKL9dOvXyNLxoYu-38" value="" style="rounded=0;orthogonalLoop=1;jettySize=auto;html=1;endArrow=oval;endFill=0;sketch=0;sourcePerimeterSpacing=0;targetPerimeterSpacing=0;endSize=10;exitX=0;exitY=0.75;exitDx=0;exitDy=0;" parent="1" source="ZW_wzAKL9dOvXyNLxoYu-18" edge="1">
          <mxGeometry relative="1" as="geometry">
            <mxPoint x="487" y="346" as="sourcePoint" />
            <mxPoint x="280" y="360" as="targetPoint" />
          </mxGeometry>
        </mxCell>
        <mxCell id="ZW_wzAKL9dOvXyNLxoYu-41" value="" style="rounded=0;orthogonalLoop=1;jettySize=auto;html=1;endArrow=oval;endFill=0;sketch=0;sourcePerimeterSpacing=0;targetPerimeterSpacing=0;endSize=10;exitX=0;exitY=0.25;exitDx=0;exitDy=0;" parent="1" source="ZW_wzAKL9dOvXyNLxoYu-18" target="ZW_wzAKL9dOvXyNLxoYu-31" edge="1">
          <mxGeometry relative="1" as="geometry">
            <mxPoint x="307" y="301" as="sourcePoint" />
            <mxPoint x="280" y="270" as="targetPoint" />
          </mxGeometry>
        </mxCell>
        <mxCell id="ZW_wzAKL9dOvXyNLxoYu-31" value="" style="ellipse;whiteSpace=wrap;html=1;align=center;aspect=fixed;fillColor=none;strokeColor=none;resizable=0;perimeter=centerPerimeter;rotatable=0;allowArrows=0;points=[];outlineConnect=1;" parent="1" vertex="1">
          <mxGeometry x="280" y="268" width="10" height="10" as="geometry" />
        </mxCell>
        <mxCell id="ZW_wzAKL9dOvXyNLxoYu-43" value="" style="rounded=0;orthogonalLoop=1;jettySize=auto;html=1;endArrow=halfCircle;endFill=0;endSize=6;strokeWidth=1;sketch=0;exitX=1;exitY=0.5;exitDx=0;exitDy=0;" parent="1" source="ZW_wzAKL9dOvXyNLxoYu-20" edge="1">
          <mxGeometry relative="1" as="geometry">
            <mxPoint x="820" y="308" as="sourcePoint" />
            <mxPoint x="800" y="330" as="targetPoint" />
          </mxGeometry>
        </mxCell>
        <mxCell id="ZW_wzAKL9dOvXyNLxoYu-44" value="" style="rounded=0;orthogonalLoop=1;jettySize=auto;html=1;endArrow=oval;endFill=0;sketch=0;sourcePerimeterSpacing=0;targetPerimeterSpacing=0;endSize=10;exitX=0;exitY=0.5;exitDx=0;exitDy=0;" parent="1" source="ZW_wzAKL9dOvXyNLxoYu-25" edge="1">
          <mxGeometry relative="1" as="geometry">
            <mxPoint x="810" y="330" as="sourcePoint" />
            <mxPoint x="800" y="330" as="targetPoint" />
          </mxGeometry>
        </mxCell>
        <mxCell id="ZW_wzAKL9dOvXyNLxoYu-46" value="«View»&lt;br&gt;&lt;b&gt;:myGUIView&lt;/b&gt;" style="html=1;dropTarget=0;whiteSpace=wrap;" parent="1" vertex="1">
          <mxGeometry x="860" y="191" width="180" height="90" as="geometry" />
        </mxCell>
        <mxCell id="ZW_wzAKL9dOvXyNLxoYu-47" value="" style="shape=module;jettyWidth=8;jettyHeight=4;" parent="ZW_wzAKL9dOvXyNLxoYu-46" vertex="1">
          <mxGeometry x="1" width="20" height="20" relative="1" as="geometry">
            <mxPoint x="-27" y="7" as="offset" />
          </mxGeometry>
        </mxCell>
        <mxCell id="ZW_wzAKL9dOvXyNLxoYu-48" value="" style="rounded=0;orthogonalLoop=1;jettySize=auto;html=1;endArrow=halfCircle;endFill=0;endSize=6;strokeWidth=1;sketch=0;exitX=1;exitY=0.25;exitDx=0;exitDy=0;" parent="1" source="ZW_wzAKL9dOvXyNLxoYu-20" edge="1">
          <mxGeometry relative="1" as="geometry">
            <mxPoint x="820" y="160" as="sourcePoint" />
            <mxPoint x="800" y="270" as="targetPoint" />
          </mxGeometry>
        </mxCell>
        <mxCell id="ZW_wzAKL9dOvXyNLxoYu-49" value="" style="rounded=0;orthogonalLoop=1;jettySize=auto;html=1;endArrow=oval;endFill=0;sketch=0;sourcePerimeterSpacing=0;targetPerimeterSpacing=0;endSize=10;exitX=0;exitY=0.5;exitDx=0;exitDy=0;" parent="1" source="ZW_wzAKL9dOvXyNLxoYu-46" edge="1">
          <mxGeometry relative="1" as="geometry">
            <mxPoint x="790" y="160" as="sourcePoint" />
            <mxPoint x="800" y="270" as="targetPoint" />
          </mxGeometry>
        </mxCell>
        <mxCell id="ZW_wzAKL9dOvXyNLxoYu-52" value="" style="ellipse;whiteSpace=wrap;html=1;align=center;aspect=fixed;fillColor=none;strokeColor=none;resizable=0;perimeter=centerPerimeter;rotatable=0;allowArrows=0;points=[];outlineConnect=1;" parent="1" vertex="1">
          <mxGeometry x="525" y="290" width="10" height="10" as="geometry" />
        </mxCell>
        <mxCell id="ZW_wzAKL9dOvXyNLxoYu-53" value="ModelObserver" style="text;strokeColor=none;align=center;fillColor=none;html=1;verticalAlign=middle;whiteSpace=wrap;rounded=0;" parent="1" vertex="1">
          <mxGeometry x="770" y="222" width="60" height="28" as="geometry" />
        </mxCell>
        <mxCell id="ZW_wzAKL9dOvXyNLxoYu-54" value="UserInputObserver" style="text;strokeColor=none;align=center;fillColor=none;html=1;verticalAlign=middle;whiteSpace=wrap;rounded=0;" parent="1" vertex="1">
          <mxGeometry x="283" y="234" width="60" height="28" as="geometry" />
        </mxCell>
        <mxCell id="ZW_wzAKL9dOvXyNLxoYu-56" value="update" style="html=1;verticalAlign=bottom;endArrow=block;curved=0;rounded=0;exitX=1;exitY=0.5;exitDx=0;exitDy=0;entryX=0;entryY=0.5;entryDx=0;entryDy=0;" parent="1" source="ZW_wzAKL9dOvXyNLxoYu-18" target="ZW_wzAKL9dOvXyNLxoYu-20" edge="1">
          <mxGeometry width="80" relative="1" as="geometry">
            <mxPoint x="520" y="300" as="sourcePoint" />
            <mxPoint x="600" y="300" as="targetPoint" />
          </mxGeometry>
        </mxCell>
        <mxCell id="_4W03MV-Wj9x4cw2Sh2n-1" value="«View»&lt;br&gt;&lt;b&gt;:myRemoteViewProxy&lt;/b&gt;" style="html=1;dropTarget=0;whiteSpace=wrap;" vertex="1" parent="1">
          <mxGeometry x="860" y="414" width="180" height="90" as="geometry" />
        </mxCell>
        <mxCell id="_4W03MV-Wj9x4cw2Sh2n-2" value="" style="shape=module;jettyWidth=8;jettyHeight=4;" vertex="1" parent="_4W03MV-Wj9x4cw2Sh2n-1">
          <mxGeometry x="1" width="20" height="20" relative="1" as="geometry">
            <mxPoint x="-27" y="7" as="offset" />
          </mxGeometry>
        </mxCell>
        <mxCell id="_4W03MV-Wj9x4cw2Sh2n-3" value="«RemoteView»&lt;br&gt;&lt;b&gt;:myRemoteView&lt;/b&gt;" style="html=1;dropTarget=0;whiteSpace=wrap;" vertex="1" parent="1">
          <mxGeometry x="860" y="554" width="180" height="90" as="geometry" />
        </mxCell>
        <mxCell id="_4W03MV-Wj9x4cw2Sh2n-4" value="" style="shape=module;jettyWidth=8;jettyHeight=4;" vertex="1" parent="_4W03MV-Wj9x4cw2Sh2n-3">
          <mxGeometry x="1" width="20" height="20" relative="1" as="geometry">
            <mxPoint x="-27" y="7" as="offset" />
          </mxGeometry>
        </mxCell>
        <mxCell id="_4W03MV-Wj9x4cw2Sh2n-5" value="&amp;lt;&amp;lt;RMI&amp;gt;&amp;gt;" style="html=1;verticalAlign=bottom;endArrow=open;curved=0;rounded=0;exitX=0.5;exitY=1;exitDx=0;exitDy=0;entryX=0.5;entryY=0;entryDx=0;entryDy=0;endFill=0;" edge="1" parent="1" source="_4W03MV-Wj9x4cw2Sh2n-1" target="_4W03MV-Wj9x4cw2Sh2n-3">
          <mxGeometry x="0.2" y="30" width="80" relative="1" as="geometry">
            <mxPoint x="945.06" y="504" as="sourcePoint" />
            <mxPoint x="943.98" y="605.99" as="targetPoint" />
            <mxPoint as="offset" />
          </mxGeometry>
        </mxCell>
        <mxCell id="_4W03MV-Wj9x4cw2Sh2n-6" value="" style="rounded=0;orthogonalLoop=1;jettySize=auto;html=1;endArrow=halfCircle;endFill=0;endSize=6;strokeWidth=1;sketch=0;exitX=0.978;exitY=0.667;exitDx=0;exitDy=0;exitPerimeter=0;" edge="1" parent="1" source="ZW_wzAKL9dOvXyNLxoYu-20">
          <mxGeometry relative="1" as="geometry">
            <mxPoint x="760" y="459" as="sourcePoint" />
            <mxPoint x="800" y="390" as="targetPoint" />
          </mxGeometry>
        </mxCell>
        <mxCell id="_4W03MV-Wj9x4cw2Sh2n-7" value="" style="rounded=0;orthogonalLoop=1;jettySize=auto;html=1;endArrow=oval;endFill=0;sketch=0;sourcePerimeterSpacing=0;targetPerimeterSpacing=0;endSize=10;exitX=0;exitY=0.5;exitDx=0;exitDy=0;" edge="1" parent="1" source="_4W03MV-Wj9x4cw2Sh2n-1">
          <mxGeometry relative="1" as="geometry">
            <mxPoint x="990" y="585" as="sourcePoint" />
            <mxPoint x="800" y="390" as="targetPoint" />
          </mxGeometry>
        </mxCell>
        <mxCell id="_4W03MV-Wj9x4cw2Sh2n-8" value="" style="ellipse;whiteSpace=wrap;html=1;align=center;aspect=fixed;fillColor=none;strokeColor=none;resizable=0;perimeter=centerPerimeter;rotatable=0;allowArrows=0;points=[];outlineConnect=1;" vertex="1" parent="1">
          <mxGeometry x="1005" y="580" width="10" height="10" as="geometry" />
        </mxCell>
      </root>
    </mxGraphModel>
  </diagram>
</mxfile>
